<svg xmlns="http://www.w3.org/2000/svg" viewBox="0 0 72 72" width="64px" height="64px">
  <path d="M 23.564453 14 C 17.935453 14 14.058594 16.18975 11.933594 17.84375 C 10.706594 18.79875 10 20.266313 10 21.820312 L 10 55.238281 C 10 56.486281 11.026672 57.388672 12.138672 57.388672 C 12.499672 57.388672 12.869797 57.294938 13.216797 57.085938 C 15.636797 55.626937 19.267453 54.027344 23.564453 54.027344 C 26.925453 54.027344 29.673609 55.047703 31.724609 56.220703 C 33.051609 56.979703 34.526 57.357422 36 57.357422 C 37.474 57.357422 38.948391 56.979703 40.275391 56.220703 C 42.326391 55.047703 45.074547 54.027344 48.435547 54.027344 C 52.732547 54.027344 56.362203 55.625937 58.783203 57.085938 C 59.130203 57.294937 59.500328 57.388672 59.861328 57.388672 C 60.973328 57.388672 62 56.486281 62 55.238281 L 62 21.820312 C 62 20.265312 61.293406 18.79775 60.066406 17.84375 C 57.941406 16.18975 54.064547 14 48.435547 14 C 39.391547 14 36 18.521484 36 18.521484 C 36 18.521484 32.608453 14 23.564453 14 z M 23.564453 22 C 26.96276 22 29.855834 23.058776 32 24.201172 L 32 47.757812 C 29.543679 46.9036 26.354836 46.027344 23.564453 46.027344 C 21.588453 46.027344 19.725 46.259672 18 46.638672 L 18 23.388672 C 18 23.388672 20.471453 22 23.564453 22 z M 48.435547 22 C 51.531547 22 54 23.388672 54 23.388672 L 54 46.636719 C 52.275 46.258719 50.411547 46.027344 48.435547 46.027344 C 45.650007 46.027344 42.458398 46.903218 40 47.757812 L 40 24.189453 C 42.137318 23.051415 45.025127 22 48.435547 22 z" fill="#3C00FF" />
</svg>